<svg preserveAspectRatio="none" overflow="visible" style="display: block;" width="14" height="10" viewBox="0 0 14 10" fill="none" xmlns="http://www.w3.org/2000/svg">
<g id="Frame" clip-path="url(#clip0_0_11)">
<path id="Vector" fill-rule="evenodd" clip-rule="evenodd" d="M7.00036 2.00051C9.03163 2.00059 10.9852 2.74854 12.4574 4.08975C12.5683 4.19329 12.7454 4.19199 12.8546 4.08682L13.9143 3.06197C13.9696 3.00863 14.0004 2.93637 14 2.86119C13.9995 2.78602 13.9678 2.71412 13.9119 2.66139C10.048 -0.88713 3.95217 -0.88713 0.0882532 2.66139C0.0322751 2.71407 0.000520966 2.78596 6.43111e-06 2.86114C-0.00051137 2.93631 0.0302578 3.00858 0.0855008 3.06197L1.14549 4.08682C1.25461 4.19215 1.43193 4.19346 1.54273 4.08975C3.01506 2.74845 4.96889 2.0005 7.00036 2.00051ZM6.99763 5.42377C8.10621 5.42369 9.17513 5.83883 9.99692 6.58841C10.108 6.69475 10.2831 6.69248 10.3915 6.58322L11.4428 5.51307C11.4981 5.45694 11.5289 5.38076 11.5281 5.30163C11.5273 5.22251 11.495 5.14701 11.4385 5.09202C8.93624 2.74712 5.06112 2.74712 2.55883 5.09202C2.5023 5.14701 2.47005 5.22255 2.46932 5.3017C2.46857 5.38085 2.4994 5.45702 2.55488 5.51307L3.60593 6.58322C3.71427 6.69248 3.88935 6.69475 4.00049 6.58841C4.82166 5.83932 5.8898 5.42425 6.99763 5.42377ZM9.0594 7.6897C9.06095 7.77519 9.03065 7.85761 8.97569 7.91747L7.19799 9.90858C7.14587 9.96707 7.07483 10 7.00069 10C6.92656 10 6.85551 9.96707 6.8034 9.90858L5.02537 7.91747C4.97044 7.85752 4.94023 7.77511 4.94186 7.6897C4.94348 7.6042 4.97681 7.52325 5.03398 7.46599C6.1693 6.40022 7.83211 6.40022 8.96744 7.46599C9.02453 7.52333 9.05777 7.60429 9.0594 7.6897Z" fill="black"/>
</g>
<defs>
<clipPath id="clip0_0_11">
<rect width="14" height="10" fill="white"/>
</clipPath>
</defs>
</svg>
